<svg xmlns="http://www.w3.org/2000/svg" xmlns:xlink="http://www.w3.org/1999/xlink" width="500" zoomAndPan="magnify" viewBox="0 0 375 374.999991" height="500" preserveAspectRatio="xMidYMid meet" version="1.0"><path fill="#54bec1" d="M 375 284.429688 C 375 268.941406 345.832031 261.238281 312.824219 268.027344 L 120.148438 307.613281 C 114.976562 308.675781 109.71875 309.609375 104.527344 310.363281 C 60.464844 316.835938 21.832031 311.648438 0 298.605469 L 0 306.046875 C 0 315.21875 5.542969 323.390625 15.996094 329.632812 C 35.339844 341.183594 68.4375 344.910156 104.527344 339.609375 C 108.929688 338.960938 113.386719 338.175781 117.796875 337.265625 L 299.503906 299.941406 L 299.484375 299.949219 C 360.898438 287.332031 375 301.613281 375 301.613281 L 375 284.429688 L 374.976562 284.4375 Z M 375 284.429688 " fill-opacity="1" fill-rule="nonzero"/><path fill="#8bd9df" d="M 375 239.308594 C 375 223.824219 345.832031 216.121094 312.824219 222.90625 L 120.148438 262.492188 C 114.976562 263.558594 109.71875 264.488281 104.527344 265.246094 C 60.464844 271.71875 21.832031 266.527344 0 253.484375 L 0 260.925781 C 0 270.097656 5.542969 278.273438 15.996094 284.511719 C 35.339844 296.0625 68.4375 299.789062 104.527344 294.488281 C 108.929688 293.84375 113.386719 293.054688 117.796875 292.148438 L 299.503906 254.820312 L 299.484375 254.828125 C 360.898438 242.210938 375 256.492188 375 256.492188 L 375 239.308594 L 374.976562 239.316406 Z M 375 239.308594 " fill-opacity="1" fill-rule="nonzero"/><path fill="#ff8c54" d="M 303.277344 318.433594 L 121.589844 355.753906 C 117.503906 356.59375 113.398438 357.285156 109.328125 357.921875 C 133.132812 368.859375 159.59375 375 187.5 375 C 241.890625 375 290.84375 351.816406 325.09375 314.828125 C 318.359375 315.628906 311.070312 316.835938 303.277344 318.433594 Z M 303.277344 318.433594 " fill-opacity="1" fill-rule="nonzero"/><path fill="#47aa70" d="M 350.566406 51.855469 C 347.09375 46.882812 327.691406 45.523438 305.390625 56.460938 C 300.15625 59.023438 292.621094 62.707031 283.726562 67.230469 L 230.421875 52.875 C 221.984375 50.226562 211.066406 50.691406 200.558594 55.679688 L 192.765625 59.386719 C 191.503906 59.941406 190.515625 60.742188 190.050781 61.566406 C 189.890625 62.390625 190.09375 63.140625 190.621094 63.75 L 239.332031 90.21875 C 215.085938 102.9375 189.984375 116.308594 172.566406 125.773438 L 154.335938 120.871094 C 150.71875 119.738281 146.046875 119.933594 141.546875 122.070312 L 138.210938 123.660156 C 137.671875 123.898438 137.242188 124.238281 137.046875 124.597656 C 136.980469 124.949219 137.0625 125.273438 137.296875 125.535156 L 155.378906 135.359375 C 149.878906 138.921875 147.863281 143.640625 150.886719 146.558594 C 153.554688 149.503906 160.035156 149.96875 166.6875 148.011719 L 171.832031 163.695312 C 172.074219 163.949219 172.449219 164.136719 172.921875 164.226562 C 173.453125 164.234375 174.050781 164.09375 174.570312 163.828125 L 177.90625 162.238281 C 182.40625 160.101562 184.523438 157.074219 184.523438 154.214844 L 185.558594 140.386719 C 204.414062 132.496094 231.367188 121.074219 257.191406 109.957031 L 271.261719 152.851562 C 271.824219 153.441406 272.691406 153.878906 273.796875 154.101562 C 275.03125 154.125 276.433594 153.789062 277.640625 153.164062 L 285.441406 149.460938 C 295.949219 144.464844 300.878906 137.390625 300.890625 130.726562 L 303.96875 89.574219 C 313.171875 85.484375 320.761719 81.691406 326.226562 79.453125 C 352.003906 68.886719 353.242188 55.703125 350.566406 51.855469 Z M 350.566406 51.855469 " fill-opacity="1" fill-rule="nonzero"/><path fill="#f4c200" d="M 20.683594 124.558594 C 29.8125 134.429688 39.953125 141.871094 50.820312 146.683594 C 61.003906 151.191406 72.039062 153.472656 83.625 153.472656 C 97.800781 153.472656 113.445312 149.976562 130.109375 143.113281 L 125.226562 140.460938 L 122.96875 137.835938 C 119.023438 133.246094 117.382812 127.191406 118.46875 121.222656 L 119.03125 118.132812 L 120.5625 115.394531 C 122.722656 111.53125 126.058594 108.472656 130.238281 106.550781 L 133.417969 105.03125 C 138.546875 102.59375 144.164062 101.308594 149.675781 101.308594 C 153.074219 101.308594 156.390625 101.78125 159.53125 102.71875 L 170.191406 105.59375 C 178.890625 100.890625 188.851562 95.558594 199.359375 89.976562 L 178.582031 78.691406 L 176.339844 76.09375 C 172.058594 71.144531 170.289062 64.605469 171.488281 58.140625 L 172.058594 55.066406 L 173.59375 52.335938 C 176.039062 47.976562 179.925781 44.496094 184.84375 42.261719 L 192.464844 38.640625 C 201.039062 34.566406 210.414062 32.414062 219.570312 32.414062 C 225.164062 32.414062 230.578125 33.195312 235.65625 34.746094 L 281.671875 47.136719 C 286.988281 44.476562 291.636719 42.195312 295.363281 40.363281 L 297.082031 39.523438 C 298.214844 38.96875 299.355469 38.46875 300.496094 37.957031 C 269.0625 14.167969 229.949219 0 187.5 0 C 108.871094 0 41.601562 48.425781 13.746094 117.058594 Z M 20.683594 124.558594 " fill-opacity="1" fill-rule="nonzero"/><path fill="#ff8c54" d="M 347.390625 89.828125 C 343.417969 92.296875 338.796875 94.695312 333.34375 96.921875 C 330.570312 98.0625 327.203125 99.644531 323.316406 101.453125 C 322.859375 101.671875 322.394531 101.886719 321.921875 102.105469 L 319.71875 131.601562 C 319.328125 145.859375 309.585938 158.863281 293.511719 166.507812 L 285.898438 170.128906 C 282.136719 171.996094 277.988281 172.980469 273.890625 172.980469 L 271.972656 172.980469 L 269.976562 172.597656 C 265.066406 171.585938 260.753906 169.246094 257.519531 165.824219 L 254.617188 162.757812 L 245.65625 135.433594 C 231.234375 141.601562 216.488281 147.847656 203.488281 153.324219 L 203.355469 155.167969 C 202.972656 165.308594 196.539062 174.269531 185.992188 179.289062 L 182.78125 180.808594 C 179.722656 182.308594 176.332031 183.097656 172.972656 183.097656 L 170.84375 183.050781 L 169.304688 182.753906 C 164.878906 181.890625 160.964844 179.746094 157.988281 176.535156 L 155.175781 173.503906 L 153.246094 167.625 C 147.179688 166.671875 141.953125 164.121094 138 160.28125 C 118.851562 168.253906 100.679688 172.34375 83.632812 172.34375 C 69.351562 172.34375 55.851562 169.546875 43.183594 163.933594 C 28.574219 157.46875 16.589844 147.914062 6.832031 137.363281 C 2.40625 153.335938 0 170.128906 0 187.5 C 0 203.976562 2.144531 219.945312 6.136719 235.171875 L 9.675781 237.285156 C 22.304688 244.828125 43.449219 249.15625 67.664062 249.15625 C 78.636719 249.15625 90.121094 248.289062 101.78125 246.570312 C 106.558594 245.871094 111.457031 245.011719 116.347656 244.003906 L 309.03125 204.421875 C 318.269531 202.523438 327.457031 201.5625 336.328125 201.5625 C 352.597656 201.5625 364.792969 204.578125 373.710938 209.234375 C 374.535156 202.101562 375 194.859375 375 187.5 C 375 151.679688 364.828125 118.289062 347.390625 89.828125 Z M 347.390625 89.828125 " fill-opacity="1" fill-rule="nonzero"/></svg>